<?xml version="1.0" encoding="UTF-8" standalone="no"?>
<!DOCTYPE svg PUBLIC "-//W3C//DTD SVG 1.1//EN"
 "http://www.w3.org/Graphics/SVG/1.1/DTD/svg11.dtd">
<!-- Generated by graphviz version 2.26.3 (20100126.1600)
 -->
<!-- Title: MindMap Pages: 1 -->
<svg width="848pt" height="638pt"
 viewBox="0.00 0.00 848.00 638.00" xmlns="http://www.w3.org/2000/svg" xmlns:xlink="http://www.w3.org/1999/xlink">
<g id="graph1" class="graph" transform="scale(1 1) rotate(0) translate(4 634)">
<title>MindMap</title>
<polygon fill="white" stroke="white" points="-4,5 -4,-634 845,-634 845,5 -4,5"/>
<!-- Vagina_Monologe -->
<g id="node1" class="node"><title>Vagina_Monologe</title>
<ellipse fill="none" stroke="black" cx="415.664" cy="-319.165" rx="96.8736" ry="18.3848"/>
<text text-anchor="middle" x="415.664" y="-315.565" font-family="Times Roman,serif" font-size="14.00">Vagina_Monologe</text>
</g>
<!-- Adriana_Altaras -->
<g id="node2" class="node"><title>Adriana_Altaras</title>
<ellipse fill="none" stroke="black" cx="689.091" cy="-442.654" rx="89.0955" ry="18.3848"/>
<text text-anchor="middle" x="689.091" y="-439.054" font-family="Times Roman,serif" font-size="14.00">Adriana_Altaras</text>
</g>
<!-- Vagina_Monologe&#45;&gt;Adriana_Altaras -->
<g id="edge2" class="edge"><title>Vagina_Monologe&#45;&gt;Adriana_Altaras</title>
<path fill="none" stroke="black" d="M453.683,-336.336C503.101,-358.655 589.36,-397.612 642.613,-421.663"/>
<polygon fill="black" stroke="black" points="651.833,-425.827 640.867,-425.812 647.276,-423.769 642.719,-421.711 642.719,-421.711 642.719,-421.711 647.276,-423.769 644.572,-417.61 651.833,-425.827 651.833,-425.827"/>
</g>
<!-- Alanis_Morissette -->
<g id="node3" class="node"><title>Alanis_Morissette</title>
<ellipse fill="none" stroke="black" cx="217.751" cy="-67.4474" rx="96.8736" ry="18.3848"/>
<text text-anchor="middle" x="217.751" y="-63.8474" font-family="Times Roman,serif" font-size="14.00">Alanis_Morissette</text>
</g>
<!-- Vagina_Monologe&#45;&gt;Alanis_Morissette -->
<g id="edge4" class="edge"><title>Vagina_Monologe&#45;&gt;Alanis_Morissette</title>
<path fill="none" stroke="black" d="M401.111,-300.656C366.44,-256.56 278.863,-145.174 238.593,-93.9564"/>
<polygon fill="black" stroke="black" points="232.325,-85.9839 242.043,-91.0637 235.415,-89.9145 238.506,-93.8451 238.506,-93.8451 238.506,-93.8451 235.415,-89.9145 234.968,-96.6265 232.325,-85.9839 232.325,-85.9839"/>
</g>
<!-- Bosnien -->
<g id="node4" class="node"><title>Bosnien</title>
<ellipse fill="none" stroke="black" cx="436.979" cy="-559.625" rx="50.2046" ry="18.3848"/>
<text text-anchor="middle" x="436.979" y="-556.025" font-family="Times Roman,serif" font-size="14.00">Bosnien</text>
</g>
<!-- Vagina_Monologe&#45;&gt;Bosnien -->
<g id="edge6" class="edge"><title>Vagina_Monologe&#45;&gt;Bosnien</title>
<path fill="none" stroke="black" d="M417.336,-338.034C421.048,-379.911 429.996,-480.852 434.418,-530.733"/>
<polygon fill="black" stroke="black" points="435.314,-540.845 429.948,-531.281 434.872,-535.864 434.431,-530.884 434.431,-530.884 434.431,-530.884 434.872,-535.864 438.913,-530.486 435.314,-540.845 435.314,-540.845"/>
</g>
<!-- Calista_Flockhart -->
<g id="node5" class="node"><title>Calista_Flockhart</title>
<ellipse fill="none" stroke="black" cx="640.706" cy="-535.141" rx="94.9596" ry="18.3848"/>
<text text-anchor="middle" x="640.706" y="-531.541" font-family="Times Roman,serif" font-size="14.00">Calista_Flockhart</text>
</g>
<!-- Vagina_Monologe&#45;&gt;Calista_Flockhart -->
<g id="edge8" class="edge"><title>Vagina_Monologe&#45;&gt;Calista_Flockhart</title>
<path fill="none" stroke="black" d="M434.851,-337.579C475.042,-376.151 568.146,-465.505 614.087,-509.594"/>
<polygon fill="black" stroke="black" points="621.567,-516.773 611.236,-513.096 617.96,-513.311 614.352,-509.849 614.352,-509.849 614.352,-509.849 617.96,-513.311 617.468,-506.602 621.567,-516.773 621.567,-516.773"/>
</g>
<!-- Esther_Schweins -->
<g id="node6" class="node"><title>Esther_Schweins</title>
<ellipse fill="none" stroke="black" cx="96.4229" cy="-358.423" rx="94.7523" ry="18.3848"/>
<text text-anchor="middle" x="96.4229" y="-354.823" font-family="Times Roman,serif" font-size="14.00">Esther_Schweins</text>
</g>
<!-- Vagina_Monologe&#45;&gt;Esther_Schweins -->
<g id="edge10" class="edge"><title>Vagina_Monologe&#45;&gt;Esther_Schweins</title>
<path fill="none" stroke="black" d="M333.866,-329.224C288.945,-334.748 233.137,-341.611 186.914,-347.295"/>
<polygon fill="black" stroke="black" points="176.903,-348.526 186.279,-342.839 181.865,-347.916 186.828,-347.306 186.828,-347.306 186.828,-347.306 181.865,-347.916 187.377,-351.772 176.903,-348.526 176.903,-348.526"/>
</g>
<!-- Eve_Ensler -->
<g id="node7" class="node"><title>Eve_Ensler</title>
<ellipse fill="none" stroke="black" cx="361.435" cy="-19.2106" rx="65.0538" ry="18.3848"/>
<text text-anchor="middle" x="361.435" y="-15.6106" font-family="Times Roman,serif" font-size="14.00">Eve_Ensler</text>
</g>
<!-- Vagina_Monologe&#45;&gt;Eve_Ensler -->
<g id="edge12" class="edge"><title>Vagina_Monologe&#45;&gt;Eve_Ensler</title>
<path fill="none" stroke="black" d="M412.271,-300.402C403.084,-249.585 377.673,-109.028 366.649,-48.0528"/>
<polygon fill="black" stroke="black" points="364.826,-37.967 371.033,-47.0069 365.715,-42.8872 366.605,-47.8075 366.605,-47.8075 366.605,-47.8075 365.715,-42.8872 362.177,-48.6081 364.826,-37.967 364.826,-37.967"/>
</g>
<!-- Glenn_Close -->
<g id="node8" class="node"><title>Glenn_Close</title>
<ellipse fill="none" stroke="black" cx="512.134" cy="-39.6015" rx="72.1249" ry="18.3848"/>
<text text-anchor="middle" x="512.134" y="-36.0015" font-family="Times Roman,serif" font-size="14.00">Glenn_Close</text>
</g>
<!-- Vagina_Monologe&#45;&gt;Glenn_Close -->
<g id="edge14" class="edge"><title>Vagina_Monologe&#45;&gt;Glenn_Close</title>
<path fill="none" stroke="black" d="M422.143,-300.388C438.722,-252.344 482.755,-124.74 502.416,-67.7633"/>
<polygon fill="black" stroke="black" points="505.683,-58.2968 506.675,-69.2178 504.052,-63.0233 502.421,-67.7498 502.421,-67.7498 502.421,-67.7498 504.052,-63.0233 498.167,-66.2819 505.683,-58.2968 505.683,-58.2968"/>
</g>
<!-- Gloria_Steinem -->
<g id="node9" class="node"><title>Gloria_Steinem</title>
<ellipse fill="none" stroke="black" cx="122.363" cy="-245.871" rx="85.7684" ry="18.3848"/>
<text text-anchor="middle" x="122.363" y="-242.271" font-family="Times Roman,serif" font-size="14.00">Gloria_Steinem</text>
</g>
<!-- Vagina_Monologe&#45;&gt;Gloria_Steinem -->
<g id="edge16" class="edge"><title>Vagina_Monologe&#45;&gt;Gloria_Steinem</title>
<path fill="none" stroke="black" d="M356.663,-304.421C308.046,-292.272 239.131,-275.051 188.625,-262.43"/>
<polygon fill="black" stroke="black" points="178.78,-259.97 189.573,-258.028 183.631,-261.182 188.482,-262.394 188.482,-262.394 188.482,-262.394 183.631,-261.182 187.391,-266.76 178.78,-259.97 178.78,-259.97"/>
</g>
<!-- Hannelore_Elsner -->
<g id="node10" class="node"><title>Hannelore_Elsner</title>
<ellipse fill="none" stroke="black" cx="479.565" cy="-274.215" rx="97.0803" ry="18.3848"/>
<text text-anchor="middle" x="479.565" y="-270.615" font-family="Times Roman,serif" font-size="14.00">Hannelore_Elsner</text>
</g>
<!-- Vagina_Monologe&#45;&gt;Hannelore_Elsner -->
<g id="edge18" class="edge"><title>Vagina_Monologe&#45;&gt;Hannelore_Elsner</title>
<path fill="none" stroke="black" d="M441.287,-301.141C442.719,-300.134 444.169,-299.114 445.624,-298.09"/>
<polygon fill="black" stroke="black" points="453.936,-292.243 448.346,-301.677 449.847,-295.12 445.757,-297.996 445.757,-297.996 445.757,-297.996 449.847,-295.12 443.168,-294.316 453.936,-292.243 453.936,-292.243"/>
</g>
<!-- Iris_Berben -->
<g id="node11" class="node"><title>Iris_Berben</title>
<ellipse fill="none" stroke="black" cx="563.712" cy="-96.3584" rx="67.1751" ry="18.3848"/>
<text text-anchor="middle" x="563.712" y="-92.7584" font-family="Times Roman,serif" font-size="14.00">Iris_Berben</text>
</g>
<!-- Vagina_Monologe&#45;&gt;Iris_Berben -->
<g id="edge20" class="edge"><title>Vagina_Monologe&#45;&gt;Iris_Berben</title>
<path fill="none" stroke="black" d="M428.031,-300.552C454.223,-261.135 515.37,-169.11 545.822,-123.282"/>
<polygon fill="black" stroke="black" points="551.483,-114.762 549.697,-125.581 548.716,-118.926 545.949,-123.091 545.949,-123.091 545.949,-123.091 548.716,-118.926 542.201,-120.6 551.483,-114.762 551.483,-114.762"/>
</g>
<!-- Katja_Riemann -->
<g id="node12" class="node"><title>Katja_Riemann</title>
<ellipse fill="none" stroke="black" cx="295.904" cy="-610.995" rx="84.8528" ry="18.3848"/>
<text text-anchor="middle" x="295.904" y="-607.395" font-family="Times Roman,serif" font-size="14.00">Katja_Riemann</text>
</g>
<!-- Vagina_Monologe&#45;&gt;Katja_Riemann -->
<g id="edge22" class="edge"><title>Vagina_Monologe&#45;&gt;Katja_Riemann</title>
<path fill="none" stroke="black" d="M407.99,-337.864C387.542,-387.692 331.651,-523.885 307.393,-582.998"/>
<polygon fill="black" stroke="black" points="303.513,-592.452 303.147,-581.492 305.412,-587.826 307.31,-583.2 307.31,-583.2 307.31,-583.2 305.412,-587.826 311.473,-584.909 303.513,-592.452 303.513,-592.452"/>
</g>
<!-- Melanie_Griffith -->
<g id="node13" class="node"><title>Melanie_Griffith</title>
<ellipse fill="none" stroke="black" cx="586.903" cy="-601.201" rx="89.8026" ry="18.3848"/>
<text text-anchor="middle" x="586.903" y="-597.601" font-family="Times Roman,serif" font-size="14.00">Melanie_Griffith</text>
</g>
<!-- Vagina_Monologe&#45;&gt;Melanie_Griffith -->
<g id="edge24" class="edge"><title>Vagina_Monologe&#45;&gt;Melanie_Griffith</title>
<path fill="none" stroke="black" d="M426.899,-337.67C456.29,-386.078 535.568,-516.65 570.262,-573.793"/>
<polygon fill="black" stroke="black" points="575.626,-582.627 566.59,-576.415 573.031,-578.353 570.436,-574.079 570.436,-574.079 570.436,-574.079 573.031,-578.353 574.283,-571.744 575.626,-582.627 575.626,-582.627"/>
</g>
<!-- Rudolph_Giuliani -->
<g id="node14" class="node"><title>Rudolph_Giuliani</title>
<ellipse fill="none" stroke="black" cx="333.272" cy="-366.955" rx="92.839" ry="18.3848"/>
<text text-anchor="middle" x="333.272" y="-363.355" font-family="Times Roman,serif" font-size="14.00">Rudolph_Giuliani</text>
</g>
<!-- Vagina_Monologe&#45;&gt;Rudolph_Giuliani -->
<g id="edge26" class="edge"><title>Vagina_Monologe&#45;&gt;Rudolph_Giuliani</title>
<path fill="none" stroke="black" d="M384.984,-336.96C380.964,-339.292 376.8,-341.707 372.661,-344.108"/>
<polygon fill="black" stroke="black" points="363.703,-349.304 370.095,-340.394 368.028,-346.795 372.353,-344.287 372.353,-344.287 372.353,-344.287 368.028,-346.795 374.611,-348.179 363.703,-349.304 363.703,-349.304"/>
</g>
<!-- Sonja_Kirchberger -->
<g id="node15" class="node"><title>Sonja_Kirchberger</title>
<ellipse fill="none" stroke="black" cx="738.406" cy="-340.617" rx="99.9096" ry="18.3848"/>
<text text-anchor="middle" x="738.406" y="-337.017" font-family="Times Roman,serif" font-size="14.00">Sonja_Kirchberger</text>
</g>
<!-- Vagina_Monologe&#45;&gt;Sonja_Kirchberger -->
<g id="edge28" class="edge"><title>Vagina_Monologe&#45;&gt;Sonja_Kirchberger</title>
<path fill="none" stroke="black" d="M507.285,-325.255C546.797,-327.881 593.217,-330.967 634.049,-333.681"/>
<polygon fill="black" stroke="black" points="644.028,-334.344 633.752,-338.171 639.039,-334.012 634.05,-333.681 634.05,-333.681 634.05,-333.681 639.039,-334.012 634.349,-329.191 644.028,-334.344 644.028,-334.344"/>
</g>
<!-- Ulrike_Folkerts -->
<g id="node16" class="node"><title>Ulrike_Folkerts</title>
<ellipse fill="none" stroke="black" cx="659.974" cy="-141.335" rx="82.939" ry="18.3848"/>
<text text-anchor="middle" x="659.974" y="-137.735" font-family="Times Roman,serif" font-size="14.00">Ulrike_Folkerts</text>
</g>
<!-- Vagina_Monologe&#45;&gt;Ulrike_Folkerts -->
<g id="edge30" class="edge"><title>Vagina_Monologe&#45;&gt;Ulrike_Folkerts</title>
<path fill="none" stroke="black" d="M440.434,-301.135C484.813,-268.832 577.857,-201.107 627.364,-165.071"/>
<polygon fill="black" stroke="black" points="635.501,-159.149 630.065,-168.672 631.459,-162.091 627.416,-165.034 627.416,-165.034 627.416,-165.034 631.459,-162.091 624.768,-161.395 635.501,-159.149 635.501,-159.149"/>
</g>
<!-- Valentinstag -->
<g id="node17" class="node"><title>Valentinstag</title>
<ellipse fill="none" stroke="black" cx="681.53" cy="-248.54" rx="72.832" ry="18.3848"/>
<text text-anchor="middle" x="681.53" y="-244.94" font-family="Times Roman,serif" font-size="14.00">Valentinstag</text>
</g>
<!-- Vagina_Monologe&#45;&gt;Valentinstag -->
<g id="edge32" class="edge"><title>Vagina_Monologe&#45;&gt;Valentinstag</title>
<path fill="none" stroke="black" d="M472.373,-304.101C516.041,-292.501 576.285,-276.497 620.905,-264.644"/>
<polygon fill="black" stroke="black" points="630.747,-262.03 622.238,-268.946 625.915,-263.313 621.083,-264.597 621.083,-264.597 621.083,-264.597 625.915,-263.313 619.927,-260.248 630.747,-262.03 630.747,-262.03"/>
</g>
<!-- Vergewaltigung -->
<g id="node18" class="node"><title>Vergewaltigung</title>
<ellipse fill="none" stroke="black" cx="212.218" cy="-556.687" rx="87.889" ry="18.3848"/>
<text text-anchor="middle" x="212.218" y="-553.087" font-family="Times Roman,serif" font-size="14.00">Vergewaltigung</text>
</g>
<!-- Vagina_Monologe&#45;&gt;Vergewaltigung -->
<g id="edge34" class="edge"><title>Vagina_Monologe&#45;&gt;Vergewaltigung</title>
<path fill="none" stroke="black" d="M399.7,-337.803C363.66,-379.879 275.918,-482.318 234.528,-530.641"/>
<polygon fill="black" stroke="black" points="227.829,-538.462 230.916,-527.94 231.081,-534.664 234.334,-530.867 234.334,-530.867 234.334,-530.867 231.081,-534.664 237.752,-533.794 227.829,-538.462 227.829,-538.462"/>
</g>
<!-- Whoopi_Goldberg -->
<g id="node19" class="node"><title>Whoopi_Goldberg</title>
<ellipse fill="none" stroke="black" cx="150.224" cy="-138.518" rx="97.7889" ry="18.3848"/>
<text text-anchor="middle" x="150.224" y="-134.918" font-family="Times Roman,serif" font-size="14.00">Whoopi_Goldberg</text>
</g>
<!-- Vagina_Monologe&#45;&gt;Whoopi_Goldberg -->
<g id="edge36" class="edge"><title>Vagina_Monologe&#45;&gt;Whoopi_Goldberg</title>
<path fill="none" stroke="black" d="M389.242,-301.184C341.045,-268.383 238.877,-198.851 185.06,-162.226"/>
<polygon fill="black" stroke="black" points="176.539,-156.427 187.338,-158.333 180.673,-159.24 184.806,-162.053 184.806,-162.053 184.806,-162.053 180.673,-159.24 182.274,-165.773 176.539,-156.427 176.539,-156.427"/>
</g>
<!-- Winona_Ryder -->
<g id="node20" class="node"><title>Winona_Ryder</title>
<ellipse fill="none" stroke="black" cx="149.246" cy="-461.885" rx="82.2301" ry="18.3848"/>
<text text-anchor="middle" x="149.246" y="-458.285" font-family="Times Roman,serif" font-size="14.00">Winona_Ryder</text>
</g>
<!-- Vagina_Monologe&#45;&gt;Winona_Ryder -->
<g id="edge38" class="edge"><title>Vagina_Monologe&#45;&gt;Winona_Ryder</title>
<path fill="none" stroke="black" d="M382.996,-336.665C334.497,-362.646 243.489,-411.399 190.471,-439.801"/>
<polygon fill="black" stroke="black" points="181.349,-444.687 188.039,-435.998 185.756,-442.326 190.164,-439.965 190.164,-439.965 190.164,-439.965 185.756,-442.326 192.289,-443.932 181.349,-444.687 181.349,-444.687"/>
</g>
</g>
</svg>
